# Blender v2.78 (sub 0) OBJ File: ''
# www.blender.org
mtllib demo_lant_obj.mtl
o [Imported]_obj1_obj1
v 0.000000 2.081667 0.000000
v 0.000000 1.000000 1.000000
v 0.866025 1.000000 0.500000
v 0.866025 1.000000 -0.500000
v 0.000000 1.000000 -1.000000
v -0.866025 1.000000 -0.500000
v -0.866025 1.000000 0.500000
v 0.000000 -1.000000 1.000000
v 0.866025 -1.000000 0.500000
v 0.866025 -1.000000 -0.500000
v 0.000000 -1.000000 -1.000000
v -0.866025 -1.000000 -0.500000
v -0.866025 -1.000000 0.500000
v 0.000000 -2.081667 -0.000000
vt 0.0833 1.0000
vt 0.0000 1.0000
vt 0.1667 1.0000
vt 0.2500 1.0000
vt 0.3333 1.0000
vt 0.4167 1.0000
vt 0.5000 1.0000
vt 0.5833 1.0000
vt 0.6667 1.0000
vt 0.7500 1.0000
vt 0.8333 1.0000
vt 0.9167 1.0000
vt 1.0000 1.0000
vt 0.0833 0.0000
vt 0.1667 0.0000
vt 0.0000 0.0000
vt 0.2500 0.0000
vt 0.3333 0.0000
vt 0.4167 0.0000
vt 0.5000 0.0000
vt 0.5833 0.0000
vt 0.6667 0.0000
vt 0.7500 0.0000
vt 0.8333 0.0000
vt 0.9167 0.0000
vt 1.0000 0.0000
vn 0.3903 0.6250 0.6760
vn 0.7806 0.6250 0.0000
vn 0.3903 0.6250 -0.6760
vn -0.3903 0.6250 -0.6760
vn -0.7806 0.6250 0.0000
vn -0.3903 0.6250 0.6760
vn 0.3903 -0.6250 0.6760
vn 0.7806 -0.6250 0.0000
vn 0.3903 -0.6250 -0.6760
vn -0.3903 -0.6250 -0.6760
vn -0.7806 -0.6250 0.0000
vn -0.3903 -0.6250 0.6760
vn 0.5000 -0.0000 0.8660
vn 1.0000 0.0000 0.0000
vn 0.5000 0.0000 -0.8660
vn -0.5000 0.0000 -0.8660
vn -1.0000 -0.0000 0.0000
vn -0.5000 -0.0000 0.8660
usemtl None
s off
f 1/1/1 2/2/1 3/3/1
f 1/4/2 3/3/2 4/5/2
f 1/6/3 4/5/3 5/7/3
f 1/8/4 5/7/4 6/9/4
f 1/10/5 6/9/5 7/11/5
f 1/12/6 7/11/6 2/13/6
f 14/14/7 9/15/7 8/16/7
f 14/17/8 10/18/8 9/15/8
f 14/19/9 11/20/9 10/18/9
f 14/21/10 12/22/10 11/20/10
f 14/23/11 13/24/11 12/22/11
f 14/25/12 8/26/12 13/24/12
f 3/3/13 8/16/13 9/15/13
f 3/3/13 2/2/13 8/16/13
f 4/5/14 9/15/14 10/18/14
f 4/5/14 3/3/14 9/15/14
f 5/7/15 10/18/15 11/20/15
f 5/7/15 4/5/15 10/18/15
f 6/9/16 11/20/16 12/22/16
f 6/9/16 5/7/16 11/20/16
f 7/11/17 12/22/17 13/24/17
f 7/11/17 6/9/17 12/22/17
f 2/13/18 13/24/18 8/26/18
f 2/13/18 7/11/18 13/24/18
