# This file uses centimeters as units for non-parametric coordinates.

mtllib prop_blackboard.mtl
g default
v -7.793518 -4.802357 0.041806
v 7.793518 -4.802357 0.041806
v -7.793518 4.802357 0.041806
v 7.793518 4.802357 0.041806
v -7.793533 4.802366 -0.041798
v 7.793533 4.802366 -0.041798
v -7.793533 -4.802366 -0.041798
v 7.793533 -4.802366 -0.041798
v 8.628135 5.520002 -0.041798
v -8.628135 5.520002 -0.041798
v -8.628135 -5.520002 -0.041798
v 8.628135 -5.520002 -0.041798
v -8.628135 5.520002 0.025279
v -8.599710 5.501816 0.083872
v -8.522553 5.452452 0.127946
v 8.628135 5.520002 0.025279
v 8.599710 5.501816 0.083872
v 8.522553 5.452452 0.127946
v 8.628135 -5.520002 0.025279
v 8.599710 -5.501816 0.083872
v 8.522553 -5.452452 0.127946
v -8.628135 -5.520002 0.025279
v -8.599710 -5.501816 0.083872
v -8.522553 -5.452452 0.127946
v -7.780570 4.815884 0.099248
v -7.826373 4.887284 0.175791
v -7.954231 5.008157 0.205458
v 7.954231 5.008157 0.205458
v 7.826373 4.887284 0.175791
v 7.780570 4.815884 0.099248
v -7.954231 -5.008157 0.205458
v -7.826373 -4.887284 0.175791
v -7.780570 -4.815884 0.099248
v 7.780570 -4.815884 0.099248
v 7.826373 -4.887284 0.175791
v 7.954231 -5.008157 0.205458
v 8.384626 5.364210 0.174457
v 8.287779 5.288410 0.198452
v 8.137420 5.152895 0.205458
v -8.382887 5.363099 0.175042
v -8.287871 5.288730 0.198584
v -8.139283 5.155091 0.205458
v -8.384626 -5.364210 0.174457
v -8.287779 -5.288410 0.198452
v -8.137420 -5.152895 0.205458
v 8.382887 -5.363099 0.175042
v 8.287871 -5.288730 0.198584
v 8.139283 -5.155091 0.205458
vt 0.300649 0.958503
vt 0.047633 0.607939
vt 0.229498 0.551429
vt 0.413579 0.800785
vt 0.051041 0.174974
vt 0.460714 0.174943
vt 0.460733 0.427383
vt 0.051060 0.427414
vt 0.438967 0.802174
vt 0.235593 0.526904
vt 0.028327 0.591039
vt 0.028533 0.940274
vt 0.437631 0.802282
vt 0.235093 0.528145
vt 0.029445 0.591774
vt 0.309471 0.982184
vt 0.436176 0.802269
vt 0.234675 0.529539
vt 0.434191 0.801939
vt 0.234418 0.531531
vt 0.030586 0.592692
vt 0.031960 0.594190
vt 0.308576 0.981114
vt 0.032561 0.938219
vt 0.420491 0.800125
vt 0.417092 0.800050
vt 0.231225 0.548314
vt 0.232140 0.545075
vt 0.414714 0.800436
vt 0.230166 0.550449
vt 0.301494 0.959408
vt 0.046529 0.607519
vt 0.302177 0.961617
vt 0.044420 0.606364
vt 0.302988 0.965144
vt 0.041770 0.604195
vt 0.430967 0.801230
vt 0.234151 0.534766
vt 0.034103 0.596778
vt 0.306195 0.976084
vt 0.232850 0.540768
vt 0.424900 0.800725
vt 0.039071 0.930571
vt 0.038617 0.600965
vt 0.233754 0.537095
vt 0.035762 0.598458
vt 0.428655 0.800934
vt 0.036269 0.933550
vt 0.971767 0.174753
vt 0.971767 0.427603
vt 0.561429 0.174753
vt 0.561429 0.427603
vt 0.029104 0.156114
vt 0.029126 0.446277
vt 0.482648 0.156079
vt 0.482670 0.446243
vt 0.042062 0.926932
vt 0.304401 0.969669
vt 0.034625 0.935472
vt 0.307645 0.979244
vt 0.305379 0.973666
vt 0.044627 0.924425
vt 0.046788 0.923574
vt 0.048008 0.923865
vt 0.029921 0.940306
vt 0.310613 0.982971
vt 0.031192 0.939749
vn 0.000000 0.000000 1.000000
vn 0.000000 0.000000 1.000000
vn 0.000000 0.000000 1.000000
vn 0.000000 0.000000 1.000000
vn 0.000000 0.000000 -1.000000
vn 0.000000 0.000000 -1.000000
vn 0.000000 0.000000 -1.000000
vn 0.000000 0.000000 -1.000000
vn 0.000000 0.000000 -1.000000
vn 0.000000 0.000000 -1.000000
vn 0.000000 0.000000 -1.000000
vn 0.000000 0.000000 -1.000000
vn 0.000000 0.989767 0.142696
vn 0.000000 0.989767 0.142696
vn 0.000000 1.000000 0.000000
vn 0.000000 1.000000 0.000000
vn 0.000000 -1.000000 0.000000
vn 0.000000 -1.000000 0.000000
vn 0.000000 -0.989767 0.142696
vn 0.000000 -0.989767 0.142696
vn 0.975524 0.000000 0.219893
vn 1.000000 0.000000 0.000000
vn 1.000000 0.000000 0.000000
vn 0.975524 0.000000 0.219893
vn -1.000000 0.000000 0.000000
vn -0.975524 0.000000 0.219893
vn -0.975524 0.000000 0.219893
vn -1.000000 0.000000 0.000000
vn 0.000000 0.837737 0.546074
vn 0.000000 0.837737 0.546074
vn -0.000000 0.552725 0.833364
vn -0.000000 0.552725 0.833364
vn 0.700184 0.000000 0.713963
vn 0.700184 0.000000 0.713963
vn 0.390376 -0.000000 0.920656
vn 0.390376 -0.000000 0.920656
vn 0.000000 -0.837737 0.546074
vn 0.000000 -0.837737 0.546074
vn 0.000000 -0.552725 0.833364
vn 0.000000 -0.552725 0.833364
vn -0.390376 0.000000 0.920656
vn -0.700184 0.000000 0.713963
vn -0.700184 0.000000 0.713963
vn -0.390376 0.000000 0.920656
vn 0.029512 -0.047818 0.998420
vn 0.000000 -0.238368 0.971175
vn 0.000000 -0.238368 0.971175
vn -0.029509 -0.047814 0.998420
vn 0.000000 -0.731246 0.682114
vn 0.000000 -0.844216 0.536004
vn 0.000000 -0.844216 0.536004
vn 0.000000 -0.731246 0.682114
vn 0.000000 -0.973375 0.229218
vn 0.000000 -0.973375 0.229218
vn 0.000000 0.973375 0.229218
vn 0.000000 0.844216 0.536004
vn 0.000000 0.844216 0.536004
vn 0.000000 0.973375 0.229218
vn 0.000000 0.731246 0.682114
vn 0.000000 0.731246 0.682114
vn 0.000000 0.238368 0.971175
vn 0.029509 0.047814 0.998420
vn -0.029512 0.047818 0.998420
vn 0.000000 0.238368 0.971175
vn 0.975523 0.000000 -0.219900
vn 0.970013 0.000000 0.243053
vn 0.970013 0.000000 0.243053
vn 0.975523 0.000000 -0.219900
vn 0.858100 0.000000 0.513482
vn 0.858100 0.000000 0.513482
vn 0.226028 0.000000 0.974121
vn 0.226028 0.000000 0.974121
vn -0.226028 0.000000 0.974121
vn -0.226028 0.000000 0.974121
vn -0.858100 0.000000 0.513482
vn -0.970013 0.000000 0.243053
vn -0.970013 0.000000 0.243053
vn -0.858100 0.000000 0.513482
vn -0.975523 0.000000 -0.219900
vn -0.975523 0.000000 -0.219900
vn 0.000006 0.399072 0.916920
vn 0.000006 0.399279 0.916829
vn -0.000006 -0.399072 0.916920
vn -0.000006 -0.399279 0.916829
vn 0.289730 0.000005 0.957108
vn 0.289621 0.000005 0.957141
vn -0.289730 -0.000005 0.957108
vn -0.289621 -0.000005 0.957141
vn 0.013529 0.020336 0.999702
vn -0.013525 0.020339 0.999702
vn -0.013529 -0.020336 0.999702
vn 0.013525 -0.020339 0.999702
vn 0.059972 0.094830 0.993685
vn 0.059964 -0.094824 0.993686
vn -0.059964 0.094824 0.993686
vn -0.059972 -0.094830 0.993685
s off
g Blackboard
usemtl initialShadingGroup
f 1/51/1 2/49/2 4/50/3 3/52/4
s 1
f 5/5/5 6/6/6 8/7/7 7/8/8
f 6/6/6 5/5/5 10/53/9 9/55/10
f 7/8/8 8/7/7 12/56/11 11/54/12
f 8/7/7 6/6/6 9/55/10 12/56/11
f 5/5/5 7/8/8 11/54/12 10/53/9
s 2
f 13/13/13 16/14/14 9/10/15 10/9/16
f 11/12/17 12/11/18 19/15/19 22/65/20
f 19/15/21 12/11/22 9/10/23 16/14/24
f 11/66/25 22/16/26 13/13/27 10/9/28
f 13/13/13 14/17/29 17/18/30 16/14/14
f 14/17/29 15/19/31 18/20/32 17/18/30
f 16/14/24 17/18/33 20/21/34 19/15/21
f 17/18/33 18/20/35 21/22/36 20/21/34
f 19/15/19 20/21/37 23/67/38 22/65/20
f 20/21/37 21/22/39 24/24/40 23/67/38
f 15/19/41 14/17/42 23/23/43 24/60/44
f 14/17/42 13/13/27 22/16/26 23/23/43
f 27/25/45 26/26/46 29/27/47 28/28/48
s 7
f 26/26/49 25/29/50 30/30/51 29/27/52
f 25/29/50 3/4/53 4/3/54 30/30/51
s 8
f 1/64/55 33/63/56 34/32/57 2/2/58
f 33/63/56 32/62/59 35/34/60 34/32/57
s 2
f 32/62/61 31/57/62 36/36/63 35/34/64
s 10
f 3/4/65 25/29/66 33/31/67 1/1/68
f 25/29/66 26/26/69 32/33/70 33/31/67
s 2
f 26/26/71 27/25/45 31/35/62 32/33/72
f 28/28/48 29/27/73 35/34/74 36/36/63
s 13
f 29/27/75 30/30/76 34/32/77 35/34/78
f 30/30/76 4/3/79 2/2/80 34/32/77
s 2
f 18/20/32 15/19/31 40/37/81 37/38/82
f 24/24/40 21/22/39 46/39/83 43/59/84
f 21/22/36 18/20/35 37/38/85 46/39/86
f 15/19/41 24/60/44 43/40/87 40/37/88
f 27/25/45 28/28/48 39/41/89 42/42/90
f 36/36/63 31/57/62 45/43/91 48/44/92
f 28/28/48 36/36/63 48/44/92 39/41/89
f 31/35/62 27/25/45 42/42/90 45/58/91
f 37/38/85 38/45/93 47/46/94 46/39/86
f 38/45/93 39/41/89 48/44/92 47/46/94
f 39/41/89 38/45/93 41/47/95 42/42/90
f 38/45/93 37/38/82 40/37/81 41/47/95
f 42/42/90 41/47/95 44/61/96 45/58/91
f 41/47/95 40/37/88 43/40/87 44/61/96
f 45/43/91 44/48/96 47/46/94 48/44/92
f 44/48/96 43/59/84 46/39/83 47/46/94
