# This file uses centimeters as units for non-parametric coordinates.

mtllib prop_blackboard.mtl
g default
v -7.793518 -4.802357 0.041806
v 7.793518 -4.802357 0.041806
v -7.793518 4.802357 0.041806
v 7.793518 4.802357 0.041806
v -7.793533 4.802366 -0.041798
v 7.793533 4.802366 -0.041798
v -7.793533 -4.802366 -0.041798
v 7.793533 -4.802366 -0.041798
v 8.628135 5.520002 -0.041798
v -8.628135 5.520002 -0.041798
v -8.628135 -5.520002 -0.041798
v 8.628135 -5.520002 -0.041798
v -8.628135 5.520002 0.025279
v -8.599710 5.501816 0.083872
v -8.522553 5.452452 0.127946
v 8.628135 5.520002 0.025279
v 8.599710 5.501816 0.083872
v 8.522553 5.452452 0.127946
v 8.628135 -5.520002 0.025279
v 8.599710 -5.501816 0.083872
v 8.522553 -5.452452 0.127946
v -8.628135 -5.520002 0.025279
v -8.599710 -5.501816 0.083872
v -8.522553 -5.452452 0.127946
v -7.780570 4.815884 0.099248
v -7.826373 4.887284 0.175791
v -7.954231 5.008157 0.205458
v 7.954231 5.008157 0.205458
v 7.826373 4.887284 0.175791
v 7.780570 4.815884 0.099248
v -7.954231 -5.008157 0.205458
v -7.826373 -4.887284 0.175791
v -7.780570 -4.815884 0.099248
v 7.780570 -4.815884 0.099248
v 7.826373 -4.887284 0.175791
v 7.954231 -5.008157 0.205458
v 8.384626 5.364210 0.174457
v 8.287779 5.288410 0.198452
v 8.137420 5.152895 0.205458
v -8.382887 5.363099 0.175042
v -8.287871 5.288730 0.198584
v -8.139283 5.155091 0.205458
v -8.384626 -5.364210 0.174457
v -8.287779 -5.288410 0.198452
v -8.137420 -5.152895 0.205458
v 8.382887 -5.363099 0.175042
v 8.287871 -5.288730 0.198584
v 8.139283 -5.155091 0.205458
vt 0.202974 0.641250
vt 0.277795 0.641250
vt 0.202974 0.937406
vt 0.277795 0.937406
vt 0.137615 0.936918
vt 0.137615 0.641738
vt 0.088453 0.935593
vt 0.088453 0.643062
vt 0.035920 0.645459
vt 0.036573 0.933226
vt 0.009808 0.931193
vt 0.009660 0.647454
vt 0.001992 0.927558
vt 0.001992 0.651039
vt 0.284785 0.647429
vt 0.359606 0.647429
vt 0.284785 0.943585
vt 0.359606 0.943585
vt 0.424964 0.647917
vt 0.424964 0.943097
vt 0.474126 0.649241
vt 0.474126 0.941773
vt 0.526660 0.939376
vt 0.526006 0.651608
vt 0.552772 0.653642
vt 0.552920 0.937381
vt 0.560588 0.657277
vt 0.560588 0.933796
vt 0.749929 0.917718
vt 0.685856 0.918081
vt 0.749929 0.660065
vt 0.685856 0.659702
vt 0.600475 0.919996
vt 0.600475 0.657786
vt 0.567383 0.923238
vt 0.567383 0.654544
vt 0.938978 0.923238
vt 0.905885 0.919996
vt 0.938978 0.654544
vt 0.905885 0.657786
vt 0.820505 0.918081
vt 0.820505 0.659702
vt 0.756432 0.917718
vt 0.756432 0.660065
vt 0.507205 0.333620
vt 0.507205 0.001883
vt 0.582026 0.333620
vt 0.441847 0.333074
vt 0.582026 0.001883
vt 0.441847 0.002430
vt 0.392685 0.331590
vt 0.392685 0.003913
vt 0.340805 0.006565
vt 0.340151 0.328905
vt 0.313891 0.327079
vt 0.314039 0.008426
vt 0.306224 0.324222
vt 0.306224 0.011317
vt 0.588822 0.333620
vt 0.588822 0.001883
vt 0.663643 0.333620
vt 0.663643 0.001883
vt 0.729001 0.002430
vt 0.729001 0.333074
vt 0.778163 0.003913
vt 0.778163 0.331590
vt 0.830043 0.328939
vt 0.830696 0.006598
vt 0.856956 0.008425
vt 0.856809 0.327077
vt 0.864624 0.011281
vt 0.864624 0.324186
vt 0.715295 0.643438
vt 0.682203 0.640980
vt 0.715295 0.337611
vt 0.682203 0.340069
vt 0.596822 0.640099
vt 0.596822 0.340950
vt 0.532749 0.640348
vt 0.532749 0.340701
vt 0.526614 0.640348
vt 0.462541 0.640099
vt 0.526614 0.340701
vt 0.462541 0.340950
vt 0.377160 0.640980
vt 0.377160 0.340069
vt 0.344068 0.643438
vt 0.344068 0.337611
vt 0.080279 0.637258
vt 0.080279 0.337611
vt 0.337932 0.637258
vt 0.337932 0.337611
vt 0.021243 0.317575
vt 0.021243 0.017928
vt 0.278897 0.317575
vt 0.001992 0.001883
vt 0.278897 0.017928
vt 0.001992 0.333620
vt 0.298148 0.001883
vt 0.298148 0.333620
vt 0.994067 0.646995
vt 0.994067 0.341169
vt 0.998008 0.650553
vt 0.997949 0.337647
vt 0.721489 0.650517
vt 0.725372 0.341169
vt 0.725372 0.646995
vt 0.721430 0.337611
vn 0.000000 0.000000 1.000000
vn 0.000000 0.000000 1.000000
vn 0.000000 0.000000 1.000000
vn 0.000000 0.000000 1.000000
vn 0.000000 0.000000 -1.000000
vn 0.000000 0.000000 -1.000000
vn 0.000000 0.000000 -1.000000
vn 0.000000 0.000000 -1.000000
vn 0.000000 0.000000 -1.000000
vn 0.000000 0.000000 -1.000000
vn 0.000000 0.000000 -1.000000
vn 0.000000 0.000000 -1.000000
vn 0.000000 0.989748 0.142822
vn 0.000000 0.989780 0.142603
vn 0.000000 1.000000 0.000000
vn 0.000000 1.000000 0.000000
vn 0.000000 -1.000000 0.000000
vn 0.000000 -1.000000 0.000000
vn 0.000000 -0.989780 0.142603
vn 0.000000 -0.989748 0.142822
vn 0.975554 0.000000 0.219759
vn 1.000000 0.000000 0.000000
vn 0.975482 0.000000 0.220077
vn 1.000000 0.000000 0.000000
vn -1.000000 0.000000 0.000000
vn -0.975482 0.000000 0.220077
vn -1.000000 0.000000 0.000000
vn -0.975554 0.000000 0.219759
vn 0.000000 0.837491 0.546451
vn 0.000000 0.837887 0.545844
vn -0.000000 0.552983 0.833193
vn 0.000000 0.552405 0.833576
vn 0.699827 0.000000 0.714312
vn 0.700388 0.000000 0.713762
vn 0.391006 -0.000000 0.920388
vn 0.389569 0.000000 0.920997
vn 0.000000 -0.837491 0.546451
vn 0.000000 -0.837887 0.545844
vn 0.000000 -0.552983 0.833193
vn 0.000000 -0.552405 0.833576
vn -0.389569 0.000000 0.920997
vn -0.700388 0.000000 0.713762
vn -0.391006 0.000000 0.920388
vn -0.699827 0.000000 0.714312
vn 0.029076 -0.047980 0.998425
vn 0.000000 -0.238367 0.971175
vn -0.029998 -0.047686 0.998412
vn 0.000000 -0.238370 0.971174
vn 0.000000 -0.731247 0.682112
vn 0.000000 -0.844037 0.536285
vn 0.000000 -0.731243 0.682117
vn 0.000000 -0.844445 0.535642
vn 0.000000 -0.973374 0.229223
vn 0.000000 -0.973376 0.229215
vn 0.000000 0.973377 0.229212
vn 0.000000 0.844446 0.535640
vn 0.000000 0.973373 0.229226
vn 0.000000 0.844036 0.536287
vn 0.000000 0.731244 0.682116
vn 0.000000 0.731246 0.682113
vn 0.000000 0.238370 0.971174
vn 0.029998 0.047686 0.998412
vn 0.000000 0.238367 0.971175
vn -0.029076 0.047980 0.998425
vn 0.975523 0.000000 -0.219900
vn 0.970307 0.000000 0.241875
vn 0.975523 0.000000 -0.219900
vn 0.969875 0.000000 0.243605
vn 0.858100 0.000000 0.513482
vn 0.858101 0.000000 0.513482
vn 0.226028 0.000000 0.974121
vn 0.226028 0.000000 0.974121
vn -0.226028 0.000000 0.974121
vn -0.226028 0.000000 0.974121
vn -0.858101 0.000000 0.513482
vn -0.969875 0.000000 0.243605
vn -0.858100 0.000000 0.513482
vn -0.970308 0.000000 0.241875
vn -0.975523 0.000000 -0.219900
vn -0.975522 0.000000 -0.219900
vn 0.000006 0.399201 0.916864
vn 0.000006 0.399152 0.916885
vn -0.000006 -0.399201 0.916864
vn -0.000006 -0.399152 0.916885
vn 0.290104 0.000005 0.956995
vn 0.289148 0.000005 0.957284
vn -0.290104 -0.000005 0.956995
vn -0.289148 -0.000005 0.957284
vn -0.013262 0.020392 0.999704
vn 0.013782 0.020286 0.999699
vn 0.013262 -0.020392 0.999704
vn -0.013782 -0.020286 0.999699
vn 0.060481 0.094428 0.993693
vn 0.059367 -0.095266 0.993680
vn -0.059368 0.095266 0.993680
vn -0.060481 -0.094428 0.993693
s 1
g Blackboard
usemtl lambert3SG
f 1/89/1 2/90/2 3/91/3
f 3/91/3 2/90/2 4/92/4
s 2
usemtl lambert2SG
f 5/93/5 6/94/6 7/95/7
f 7/95/7 6/94/6 8/97/8
f 6/94/6 5/93/5 9/96/9
f 9/96/9 5/93/5 10/98/10
f 7/95/7 8/97/8 11/100/11
f 11/100/11 8/97/8 12/99/12
f 8/97/8 6/94/6 12/99/12
f 12/99/12 6/94/6 9/96/9
f 5/93/5 7/95/7 10/98/10
f 10/98/10 7/95/7 11/100/11
s 3
f 13/45/13 16/46/14 10/47/15
f 10/47/15 16/46/14 9/49/16
f 11/59/17 12/60/18 22/61/19
f 22/61/19 12/60/18 19/62/20
f 19/1/21 12/2/22 16/3/23
f 16/3/23 12/2/22 9/4/24
f 11/15/25 22/16/26 10/17/27
f 10/17/27 22/16/26 13/18/28
f 13/45/13 14/48/29 16/46/14
f 16/46/14 14/48/29 17/50/30
f 14/48/29 15/51/31 17/50/30
f 17/50/30 15/51/31 18/52/32
f 16/3/23 17/5/33 19/1/21
f 19/1/21 17/5/33 20/6/34
f 17/5/33 18/7/35 20/6/34
f 20/6/34 18/7/35 21/8/36
f 19/62/20 20/63/37 22/61/19
f 22/61/19 20/63/37 23/64/38
f 20/63/37 21/65/39 23/64/38
f 23/64/38 21/65/39 24/66/40
f 15/22/41 14/20/42 24/21/43
f 24/21/43 14/20/42 23/19/44
f 14/20/42 13/18/28 23/19/44
f 23/19/44 13/18/28 22/16/26
f 27/73/45 26/74/46 28/75/47
f 28/75/47 26/74/46 29/76/48
s 9
f 26/74/49 25/77/50 29/76/51
f 29/76/51 25/77/50 30/78/52
f 25/77/50 3/79/53 30/78/52
f 30/78/52 3/79/53 4/80/54
s 10
f 1/81/55 33/82/56 2/83/57
f 2/83/57 33/82/56 34/84/58
f 33/82/56 32/85/59 34/84/58
f 34/84/58 32/85/59 35/86/60
s 3
f 32/85/61 31/87/62 35/86/63
f 35/86/63 31/87/62 36/88/64
s 12
f 3/29/65 25/30/66 1/31/67
f 1/31/67 25/30/66 33/32/68
f 25/30/66 26/33/69 33/32/68
f 33/32/68 26/33/69 32/34/70
s 3
f 26/33/71 27/35/45 32/34/72
f 32/34/72 27/35/45 31/36/62
f 28/37/47 29/38/73 36/39/64
f 36/39/64 29/38/73 35/40/74
s 15
f 29/38/75 30/41/76 35/40/77
f 35/40/77 30/41/76 34/42/78
f 30/41/76 4/43/79 34/42/78
f 34/42/78 4/43/79 2/44/80
s 3
f 18/52/32 15/51/31 37/53/81
f 37/53/81 15/51/31 40/54/82
f 24/66/40 21/65/39 43/67/83
f 43/67/83 21/65/39 46/68/84
f 21/8/36 18/7/35 46/9/85
f 46/9/85 18/7/35 37/10/86
f 15/22/41 24/21/43 40/23/87
f 40/23/87 24/21/43 43/24/88
f 27/101/45 28/102/47 42/103/89
f 42/103/89 28/102/47 39/104/90
f 36/106/64 31/107/62 48/108/91
f 48/108/91 31/107/62 45/105/92
f 28/102/47 36/106/64 39/104/90
f 39/104/90 36/106/64 48/108/91
f 31/107/62 27/101/45 45/105/92
f 45/105/92 27/101/45 42/103/89
f 37/10/86 38/11/93 46/9/85
f 46/9/85 38/11/93 47/12/94
f 38/11/93 39/13/90 47/12/94
f 47/12/94 39/13/90 48/14/91
f 39/58/90 38/56/93 42/57/89
f 42/57/89 38/56/93 41/55/95
f 38/56/93 37/53/81 41/55/95
f 41/55/95 37/53/81 40/54/82
f 42/28/89 41/26/95 45/27/92
f 45/27/92 41/26/95 44/25/96
f 41/26/95 40/23/87 44/25/96
f 44/25/96 40/23/87 43/24/88
f 45/72/92 44/70/96 48/71/91
f 48/71/91 44/70/96 47/69/94
f 44/70/96 43/67/83 47/69/94
f 47/69/94 43/67/83 46/68/84
