# Blender 3.6.2
# www.blender.org
mtllib plants.mtl
o [Imported]_not_angled
v -6.070000 10.666238 -3.663699
v 6.070000 10.666238 -3.663699
v -5.403200 -0.000000 3.119500
v 5.403200 -0.000000 3.119500
v 6.070000 10.666238 -3.663699
v 0.000000 10.666238 6.849900
v 0.000000 0.000000 -6.239100
v -5.403200 -0.000000 3.119500
v 0.000000 10.666238 6.849900
v -6.070000 10.666238 -3.663699
v 5.403200 -0.000000 3.119500
v 0.000000 0.000000 -6.239100
vn -0.0000 0.5366 0.8438
vn -0.7382 0.5230 -0.4262
vn 0.7382 0.5230 -0.4262
vt 0.000000 0.000000
vt 1.000000 1.000000
vt 0.000000 1.000000
vt 1.000000 0.000000
s 0
usemtl Material.001
f 3/1/1 2/2/1 1/3/1
f 7/1/2 6/2/2 5/3/2
f 9/3/3 12/4/3 10/2/3
f 3/1/1 4/4/1 2/2/1
f 7/1/2 8/4/2 6/2/2
f 9/3/3 11/1/3 12/4/3
