# Blender v3.6.2 OBJ File: 'rocks_uv.blend'
# www.blender.org
mtllib rock2.mtl
o [Imported]_obj3_obj3
v -2.890000 0.000000 0.000000
v -3.376471 -0.249804 1.151597
v -3.212780 -0.047777 2.543578
v -2.566046 0.423207 3.600384
v -1.581769 0.240625 -0.359089
v -1.946121 -0.390184 0.437229
v -2.162296 -0.760394 1.856094
v -1.625369 -0.229320 3.117668
v -0.519218 0.696459 -0.572848
v -0.672860 0.369315 0.110324
v -0.580019 -0.127478 1.164956
v -0.217654 -0.061893 2.416161
v 0.337291 0.732235 -1.114875
v 0.828763 0.267060 -0.496255
v 1.016827 0.092862 0.523144
v 1.155067 0.406419 1.646267
v 1.311046 0.987414 -1.585413
v 2.095178 0.518167 -1.126648
v 2.393110 0.091344 -0.156061
v 2.461324 0.206707 0.973505
v -1.696051 0.915243 3.968106
v -1.638175 1.987824 3.985145
v -1.711347 2.843388 3.524958
v -1.914335 3.423964 2.981545
v -0.881337 0.460438 3.662512
v -0.749079 1.565197 3.721415
v -0.745351 2.698469 3.367643
v -1.079884 3.493805 2.739103
v 0.147953 0.684971 3.014721
v 0.523814 1.292764 3.144194
v 0.605866 2.276981 2.917545
v 0.018247 3.497419 2.497176
v 1.223407 0.794550 2.265078
v 1.881191 1.144726 2.439412
v 2.174468 2.152977 2.495954
v 1.480670 3.261363 2.118311
v 2.300458 0.582090 1.855358
v 2.919825 1.151963 2.027768
v 2.993925 2.339406 2.076074
v 2.519690 3.308734 1.839084
v -2.112895 3.788833 2.449297
v -2.913622 3.670650 1.924829
v -3.372606 3.453574 1.154125
v -3.628324 3.215258 0.334206
v -1.434499 4.048796 2.323576
v -2.221625 4.076901 1.683406
v -2.856733 4.073497 0.750212
v -2.980875 3.667175 -0.253920
v -0.578655 4.135609 2.092244
v -1.164602 4.524730 1.487987
v -1.589772 4.576082 0.339907
v -1.838092 4.235257 -0.798107
v 0.574100 3.967210 1.726995
v 0.180965 4.377290 1.118068
v -0.088948 4.618676 0.059200
v -0.533306 4.319210 -0.927967
v 1.618756 3.904072 1.533065
v 1.363835 4.304138 0.878750
v 1.052424 4.411766 -0.019272
v 0.599775 4.328186 -0.863685
v -3.529532 2.921757 -0.389396
v -3.694121 2.204085 -0.380194
v -3.545621 1.359044 -0.291006
v -3.276512 0.525012 -0.209228
v -2.911489 3.302301 -1.005573
v -2.948956 2.520931 -1.156307
v -2.862294 1.476152 -1.233971
v -2.145529 0.754383 -0.773040
v -1.818233 3.689824 -1.426398
v -1.694605 3.026830 -1.896781
v -1.193766 2.036793 -1.802236
v -0.798041 1.198885 -1.214195
v -0.860935 3.947946 -1.601661
v -0.497336 3.417730 -1.743399
v -0.104713 2.630108 -1.784106
v 0.172492 1.591502 -1.567369
v 0.099823 4.042211 -1.413245
v 0.551834 3.639965 -1.602998
v 1.061888 2.976126 -1.884253
v 1.413728 2.001101 -2.003320
v -3.831420 2.433609 0.491584
v -3.743766 2.822062 1.600855
v -2.855811 3.301160 2.525297
v -4.050162 1.394056 0.700529
v -4.008367 2.085163 2.406296
v -2.827543 2.732252 3.388983
v -3.863715 0.514480 0.986007
v -3.816981 0.992620 2.768026
v -2.694108 1.628289 3.762062
v 1.398740 4.027430 -1.073608
v 2.267225 4.253202 -0.001056
v 2.413744 3.869417 1.119364
v 2.483635 3.332401 -1.523471
v 3.306306 3.315983 -0.120817
v 3.598866 2.764599 1.279217
v 2.605862 1.755195 -1.609339
v 3.603044 1.314365 -0.393225
v 3.386978 0.983510 1.093445
vt 0.000000 1.000000
vt 0.250000 0.750000
vt 0.250000 1.000000
vt 0.000000 0.750000
vt 0.500000 0.750000
vt 0.500000 1.000000
vt 0.750000 1.000000
vt 0.750000 0.750000
vt 1.000000 1.000000
vt 1.000000 0.750000
vt 0.250000 0.500000
vt 0.000000 0.500000
vt 0.500000 0.500000
vt 0.750000 0.500000
vt 1.000000 0.500000
vt 0.000000 0.250000
vt 0.250000 0.250000
vt 0.500000 0.250000
vt 0.750000 0.250000
vt 1.000000 0.250000
vt 0.000000 0.000000
vt 0.250000 0.000000
vt 0.500000 0.000000
vt 0.750000 0.000000
vt 1.000000 0.000000
vt 0.000000 1.000000
vt 0.250000 0.750000
vt 0.250000 1.000000
vt 0.000000 0.750000
vt 0.500000 0.750000
vt 0.500000 1.000000
vt 0.750000 1.000000
vt 0.750000 0.750000
vt 1.000000 1.000000
vt 1.000000 0.750000
vt 0.250000 0.500000
vt 0.000000 0.500000
vt 0.500000 0.500000
vt 0.750000 0.500000
vt 1.000000 0.500000
vt 0.000000 0.250000
vt 0.250000 0.250000
vt 0.500000 0.250000
vt 0.750000 0.250000
vt 1.000000 0.250000
vt 0.000000 0.000000
vt 0.250000 0.000000
vt 0.500000 0.000000
vt 0.750000 0.000000
vt 1.000000 0.000000
vt 0.000000 1.000000
vt 0.250000 0.750000
vt 0.250000 1.000000
vt 0.000000 0.750000
vt 0.500000 0.750000
vt 0.500000 1.000000
vt 0.750000 1.000000
vt 0.750000 0.750000
vt 1.000000 1.000000
vt 1.000000 0.750000
vt 0.250000 0.500000
vt 0.000000 0.500000
vt 0.500000 0.500000
vt 0.750000 0.500000
vt 1.000000 0.500000
vt 0.000000 0.250000
vt 0.250000 0.250000
vt 0.500000 0.250000
vt 0.750000 0.250000
vt 1.000000 0.250000
vt 0.000000 0.000000
vt 0.250000 0.000000
vt 0.500000 0.000000
vt 0.750000 0.000000
vt 1.000000 0.000000
vt 0.000000 1.000000
vt 0.250000 0.750000
vt 0.250000 1.000000
vt 0.000000 0.750000
vt 0.500000 0.750000
vt 0.500000 1.000000
vt 0.750000 1.000000
vt 0.750000 0.750000
vt 1.000000 1.000000
vt 1.000000 0.750000
vt 0.250000 0.500000
vt 0.000000 0.500000
vt 0.500000 0.500000
vt 0.750000 0.500000
vt 1.000000 0.500000
vt 0.000000 0.250000
vt 0.250000 0.250000
vt 0.500000 0.250000
vt 0.750000 0.250000
vt 1.000000 0.250000
vt 0.000000 0.000000
vt 0.250000 0.000000
vt 0.500000 0.000000
vt 0.750000 0.000000
vt 1.000000 0.000000
vt 0.250000 0.750000
vt 0.250000 1.000000
vt 0.000000 0.750000
vt 0.500000 0.750000
vt 0.750000 1.000000
vt 0.750000 0.750000
vt 1.000000 0.750000
vt 0.250000 0.500000
vt 0.000000 0.500000
vt 0.500000 0.500000
vt 0.750000 0.500000
vt 1.000000 0.500000
vt 0.000000 0.250000
vt 0.250000 0.250000
vt 0.500000 0.250000
vt 0.750000 0.250000
vt 1.000000 0.250000
vt 0.000000 0.000000
vt 0.250000 0.000000
vt 0.500000 0.000000
vt 0.750000 0.000000
vt 1.000000 0.000000
vt 0.250000 0.250000
vt 0.250000 0.000000
vt 0.000000 0.250000
vt 0.500000 0.250000
vt 0.750000 0.000000
vt 0.750000 0.250000
vt 1.000000 0.250000
vt 0.250000 0.500000
vt 0.000000 0.500000
vt 0.500000 0.500000
vt 0.750000 0.500000
vt 1.000000 0.500000
vt 0.000000 0.750000
vt 0.250000 0.750000
vt 0.500000 0.750000
vt 0.750000 0.750000
vt 1.000000 0.750000
vt 0.000000 1.000000
vt 0.250000 1.000000
vt 0.500000 1.000000
vt 0.750000 1.000000
vt 1.000000 1.000000
vn -0.2413 -0.9222 -0.3020
vn -0.0298 -0.7768 -0.6290
vn -0.4685 -0.8648 0.1806
vn -0.2306 -0.9324 -0.2784
vn -0.3202 -0.8167 0.4801
vn -0.2290 -0.8293 0.5097
vn -0.0329 -0.5974 0.8013
vn -0.0019 -0.5965 0.8026
vn 0.3584 -0.8046 -0.4734
vn 0.3078 -0.8833 -0.3537
vn 0.1658 -0.8864 -0.4322
vn 0.4769 -0.8655 -0.1532
vn 0.2511 -0.9257 0.2828
vn 0.3510 -0.9349 -0.0526
vn 0.4916 -0.6783 0.5461
vn 0.3494 -0.7832 0.5143
vn -0.2415 -0.8580 -0.4533
vn -0.2582 -0.8475 -0.4639
vn -0.0449 -0.9053 -0.4225
vn -0.1253 -0.9815 -0.1446
vn 0.4138 -0.8888 0.1972
vn 0.1410 -0.9899 0.0110
vn 0.4641 -0.6811 0.5663
vn 0.4955 -0.7594 0.4216
vn -0.1341 -0.7982 -0.5873
vn -0.0600 -0.8201 -0.5690
vn -0.1743 -0.9200 -0.3511
vn 0.1013 -0.9774 -0.1857
vn -0.0082 -0.9629 0.2698
vn 0.0476 -0.9940 0.0986
vn 0.0337 -0.8483 0.5284
vn 0.0669 -0.9136 0.4011
vn 0.2712 -0.0299 0.9621
vn 0.3068 -0.0873 0.9478
vn 0.2105 0.4770 0.8533
vn 0.3906 0.2731 0.8791
vn 0.1605 0.6527 0.7404
vn 0.2158 0.7064 0.6741
vn -0.0668 0.5703 0.8187
vn 0.0872 0.8365 0.5409
vn 0.3940 -0.0959 0.9141
vn 0.5397 -0.4810 0.6909
vn 0.3611 0.1806 0.9149
vn 0.4447 0.2656 0.8554
vn 0.1609 0.6527 0.7403
vn 0.4071 0.4665 0.7853
vn 0.1446 0.6230 0.7687
vn 0.1605 0.6552 0.7382
vn 0.2373 -0.7520 0.6150
vn 0.5343 -0.4788 0.6966
vn 0.2689 0.1948 0.9433
vn 0.4383 -0.1769 0.8813
vn 0.2916 0.4670 0.8348
vn 0.2661 0.4260 0.8647
vn 0.3070 0.6978 0.6472
vn 0.2812 0.7156 0.6394
vn 0.3073 -0.5655 0.7654
vn 0.1524 -0.6548 0.7402
vn 0.4667 -0.0650 0.8820
vn 0.3648 -0.1576 0.9177
vn 0.2155 0.4331 0.8752
vn 0.3515 0.3810 0.8551
vn 0.1773 0.6415 0.7463
vn 0.1713 0.6430 0.7465
vn -0.3697 0.8512 0.3726
vn -0.2711 0.8876 0.3723
vn -0.6810 0.7021 0.2078
vn -0.4125 0.8676 0.2776
vn -0.6775 0.7072 -0.2024
vn -0.7535 0.6559 0.0444
vn -0.7208 0.5951 -0.3554
vn -0.7264 0.5966 -0.3412
vn -0.2940 0.8683 0.3996
vn 0.0495 0.8609 0.5064
vn -0.3188 0.9342 0.1599
vn -0.3432 0.9106 0.2303
vn -0.5268 0.8086 -0.2621
vn -0.4121 0.8937 -0.1777
vn -0.4618 0.6625 -0.5897
vn -0.5542 0.7276 -0.4043
vn 0.2175 0.8689 0.4447
vn 0.2425 0.9056 0.3480
vn -0.0187 0.9985 0.0516
vn 0.1563 0.9709 0.1815
vn -0.0872 0.9635 -0.2530
vn -0.0778 0.9596 -0.2704
vn -0.3076 0.7137 -0.6293
vn -0.1013 0.8913 -0.4419
vn 0.1494 0.8684 0.4728
vn 0.1426 0.8612 0.4879
vn 0.1817 0.9818 0.0546
vn 0.1001 0.9753 0.1968
vn 0.0091 0.9558 -0.2940
vn 0.1631 0.9694 -0.1834
vn 0.0096 0.8738 -0.4862
vn 0.0200 0.8793 -0.4758
vn -0.7440 0.1623 -0.6481
vn -0.7447 0.1607 -0.6477
vn -0.7815 -0.1997 -0.5911
vn -0.7197 -0.0081 -0.6943
vn -0.2180 -0.6698 -0.7098
vn -0.7542 -0.3006 -0.5838
vn -0.0771 -0.6755 -0.7334
vn -0.2895 -0.5306 -0.7966
vn -0.5535 0.1833 -0.8124
vn -0.4560 0.4569 -0.7638
vn -0.2489 -0.2161 -0.9441
vn -0.5145 0.0210 -0.8572
vn -0.0710 -0.5860 -0.8072
vn -0.0723 -0.5956 -0.8000
vn 0.1831 -0.7337 -0.6544
vn -0.0344 -0.6496 -0.7595
vn 0.0320 0.2786 -0.9599
vn -0.2872 0.5181 -0.8057
vn 0.0536 -0.0680 -0.9962
vn 0.0948 0.0984 -0.9906
vn -0.2363 -0.2585 -0.9367
vn 0.2677 -0.4656 -0.8436
vn -0.2886 -0.8106 -0.5095
vn -0.1216 -0.4806 -0.8684
vn 0.0245 0.4489 -0.8933
vn 0.1473 0.3485 -0.9257
vn -0.1632 0.2760 -0.9472
vn 0.1098 0.1058 -0.9883
vn -0.2426 -0.2598 -0.9347
vn -0.1092 0.0816 -0.9907
vn -0.2724 -0.4887 -0.8288
vn -0.2031 -0.3555 -0.9123
vn -0.9551 0.2052 -0.2136
vn -0.9541 0.2162 -0.2072
vn -0.8267 0.5543 0.0967
vn -0.9683 0.2494 -0.0108
vn -0.7253 0.5530 0.4101
vn -0.7379 0.6209 0.2646
vn -0.3877 0.6865 0.6152
vn -0.4384 0.7460 0.5013
vn -0.9669 0.1642 -0.1955
vn -0.8760 -0.2002 -0.4387
vn -0.9629 0.2575 -0.0807
vn -0.9784 0.2068 0.0049
vn -0.7205 0.5680 0.3977
vn -0.6651 0.6468 0.3733
vn -0.1554 0.6456 0.7477
vn -0.3543 0.7756 0.5225
vn -0.8502 -0.3167 -0.4205
vn -0.8501 -0.3156 -0.4215
vn -0.9859 -0.1452 0.0830
vn -0.9802 -0.1835 0.0749
vn -0.7017 0.1505 0.6964
vn -0.6738 0.1232 0.7286
vn -0.1523 0.4580 0.8758
vn -0.2875 0.2753 0.9174
vn -0.7196 -0.5505 -0.4234
vn -0.6861 -0.6417 -0.3427
vn -0.8348 -0.5223 0.1740
vn -0.8478 -0.5062 0.1581
vn -0.5981 -0.1687 0.7835
vn -0.6262 -0.4938 0.6033
vn -0.2052 -0.0045 0.9787
vn -0.3070 -0.1585 0.9384
vn 0.1568 0.8105 -0.5644
vn 0.2089 0.5993 -0.7728
vn 0.1301 0.9774 -0.1665
vn 0.2368 0.8942 -0.3800
vn 0.3147 0.9098 0.2705
vn 0.1280 0.9890 0.0742
vn 0.3209 0.7695 0.5522
vn 0.2604 0.8656 0.4278
vn 0.1380 0.6810 -0.7192
vn 0.1092 0.4577 -0.8824
vn 0.6058 0.7160 -0.3469
vn 0.3417 0.8249 -0.4503
vn 0.6606 0.7325 0.1645
vn 0.6718 0.7262 0.1456
vn 0.5794 0.4497 0.6798
vn 0.5768 0.6834 0.4475
vn 0.3271 0.0766 -0.9419
vn 0.1969 0.1885 -0.9621
vn 0.8474 0.1929 -0.4947
vn 0.7863 0.0942 -0.6106
vn 0.9850 -0.1291 0.1144
vn 0.9766 0.1638 -0.1396
vn 0.8130 -0.0742 0.5776
vn 0.8728 -0.1522 0.4638
vn 0.2439 -0.4383 -0.8651
vn 0.2152 -0.3908 -0.8950
vn 0.5800 -0.6650 -0.4705
vn 0.5770 -0.4925 -0.6516
vn 0.6467 -0.7591 -0.0749
vn 0.7134 -0.7002 0.0284
vn 0.5541 -0.7257 0.4079
vn 0.5547 -0.7243 0.4095
usemtl None
s off
f 1/1/1 6/2/1 2/3/1
f 1/1/2 5/4/2 6/2/2
f 2/3/3 7/5/3 3/6/3
f 2/3/4 6/2/4 7/5/4
f 4/7/5 7/5/5 8/8/5
f 4/7/6 3/6/6 7/5/6
f 21/9/7 8/8/7 25/10/7
f 21/9/8 4/7/8 8/8/8
f 5/4/9 10/11/9 6/2/9
f 5/4/10 9/12/10 10/11/10
f 7/5/11 10/11/11 11/13/11
f 7/5/12 6/2/12 10/11/12
f 7/5/13 12/14/13 8/8/13
f 7/5/14 11/13/14 12/14/14
f 25/10/15 12/14/15 29/15/15
f 25/10/16 8/8/16 12/14/16
f 10/11/17 13/16/17 14/17/17
f 10/11/18 9/12/18 13/16/18
f 10/11/19 15/18/19 11/13/19
f 10/11/20 14/17/20 15/18/20
f 12/14/21 15/18/21 16/19/21
f 12/14/22 11/13/22 15/18/22
f 12/14/23 33/20/23 29/15/23
f 12/14/24 16/19/24 33/20/24
f 14/17/25 17/21/25 18/22/25
f 14/17/26 13/16/26 17/21/26
f 15/18/27 18/22/27 19/23/27
f 15/18/28 14/17/28 18/22/28
f 15/18/29 20/24/29 16/19/29
f 15/18/30 19/23/30 20/24/30
f 16/19/31 37/25/31 33/20/31
f 16/19/32 20/24/32 37/25/32
f 21/26/33 26/27/33 22/28/33
f 21/26/34 25/29/34 26/27/34
f 22/28/35 27/30/35 23/31/35
f 22/28/36 26/27/36 27/30/36
f 24/32/37 27/30/37 28/33/37
f 24/32/38 23/31/38 27/30/38
f 41/34/39 28/33/39 45/35/39
f 41/34/40 24/32/40 28/33/40
f 25/29/41 30/36/41 26/27/41
f 25/29/42 29/37/42 30/36/42
f 27/30/43 30/36/43 31/38/43
f 27/30/44 26/27/44 30/36/44
f 27/30/45 32/39/45 28/33/45
f 27/30/46 31/38/46 32/39/46
f 45/35/47 32/39/47 49/40/47
f 45/35/48 28/33/48 32/39/48
f 30/36/49 33/41/49 34/42/49
f 30/36/50 29/37/50 33/41/50
f 30/36/51 35/43/51 31/38/51
f 30/36/52 34/42/52 35/43/52
f 32/39/53 35/43/53 36/44/53
f 32/39/54 31/38/54 35/43/54
f 32/39/55 53/45/55 49/40/55
f 32/39/56 36/44/56 53/45/56
f 34/42/57 37/46/57 38/47/57
f 34/42/58 33/41/58 37/46/58
f 35/43/59 38/47/59 39/48/59
f 35/43/60 34/42/60 38/47/60
f 35/43/61 40/49/61 36/44/61
f 35/43/62 39/48/62 40/49/62
f 36/44/63 57/50/63 53/45/63
f 36/44/64 40/49/64 57/50/64
f 41/51/65 46/52/65 42/53/65
f 41/51/66 45/54/66 46/52/66
f 42/53/67 47/55/67 43/56/67
f 42/53/68 46/52/68 47/55/68
f 44/57/69 47/55/69 48/58/69
f 44/57/70 43/56/70 47/55/70
f 61/59/71 48/58/71 65/60/71
f 61/59/72 44/57/72 48/58/72
f 45/54/73 50/61/73 46/52/73
f 45/54/74 49/62/74 50/61/74
f 47/55/75 50/61/75 51/63/75
f 47/55/76 46/52/76 50/61/76
f 47/55/77 52/64/77 48/58/77
f 47/55/78 51/63/78 52/64/78
f 65/60/79 52/64/79 69/65/79
f 65/60/80 48/58/80 52/64/80
f 50/61/81 53/66/81 54/67/81
f 50/61/82 49/62/82 53/66/82
f 50/61/83 55/68/83 51/63/83
f 50/61/84 54/67/84 55/68/84
f 52/64/85 55/68/85 56/69/85
f 52/64/86 51/63/86 55/68/86
f 52/64/87 73/70/87 69/65/87
f 52/64/88 56/69/88 73/70/88
f 54/67/89 57/71/89 58/72/89
f 54/67/90 53/66/90 57/71/90
f 55/68/91 58/72/91 59/73/91
f 55/68/92 54/67/92 58/72/92
f 55/68/93 60/74/93 56/69/93
f 55/68/94 59/73/94 60/74/94
f 56/69/95 77/75/95 73/70/95
f 56/69/96 60/74/96 77/75/96
f 61/76/97 66/77/97 62/78/97
f 61/76/98 65/79/98 66/77/98
f 62/78/99 67/80/99 63/81/99
f 62/78/100 66/77/100 67/80/100
f 64/82/101 67/80/101 68/83/101
f 64/82/102 63/81/102 67/80/102
f 1/84/103 68/83/103 5/85/103
f 1/84/104 64/82/104 68/83/104
f 65/79/105 70/86/105 66/77/105
f 65/79/106 69/87/106 70/86/106
f 67/80/107 70/86/107 71/88/107
f 67/80/108 66/77/108 70/86/108
f 67/80/109 72/89/109 68/83/109
f 67/80/110 71/88/110 72/89/110
f 5/85/111 72/89/111 9/90/111
f 5/85/112 68/83/112 72/89/112
f 70/86/113 73/91/113 74/92/113
f 70/86/114 69/87/114 73/91/114
f 70/86/115 75/93/115 71/88/115
f 70/86/116 74/92/116 75/93/116
f 72/89/117 75/93/117 76/94/117
f 72/89/118 71/88/118 75/93/118
f 72/89/119 13/95/119 9/90/119
f 72/89/120 76/94/120 13/95/120
f 74/92/121 77/96/121 78/97/121
f 74/92/122 73/91/122 77/96/122
f 75/93/123 78/97/123 79/98/123
f 75/93/124 74/92/124 78/97/124
f 75/93/125 80/99/125 76/94/125
f 75/93/126 79/98/126 80/99/126
f 76/94/127 17/100/127 13/95/127
f 76/94/128 80/99/128 17/100/128
f 61/76/129 81/101/129 44/102/129
f 61/76/130 62/103/130 81/101/130
f 44/102/131 82/104/131 43/56/131
f 44/102/132 81/101/132 82/104/132
f 42/105/133 82/104/133 83/106/133
f 42/105/134 43/56/134 82/104/134
f 41/34/135 83/106/135 24/107/135
f 41/34/136 42/105/136 83/106/136
f 62/103/137 84/108/137 81/101/137
f 62/103/138 63/109/138 84/108/138
f 82/104/139 84/108/139 85/110/139
f 82/104/140 81/101/140 84/108/140
f 82/104/141 86/111/141 83/106/141
f 82/104/142 85/110/142 86/111/142
f 24/107/143 86/111/143 23/112/143
f 24/107/144 83/106/144 86/111/144
f 84/108/145 64/113/145 87/114/145
f 84/108/146 63/109/146 64/113/146
f 84/108/147 88/115/147 85/110/147
f 84/108/148 87/114/148 88/115/148
f 86/111/149 88/115/149 89/116/149
f 86/111/150 85/110/150 88/115/150
f 86/111/151 22/117/151 23/112/151
f 86/111/152 89/116/152 22/117/152
f 87/114/153 1/118/153 2/119/153
f 87/114/154 64/113/154 1/118/154
f 88/115/155 2/119/155 3/120/155
f 88/115/156 87/114/156 2/119/156
f 88/115/157 4/121/157 89/116/157
f 88/115/158 3/120/158 4/121/158
f 89/116/159 21/122/159 22/117/159
f 89/116/160 4/121/160 21/122/160
f 90/123/161 77/96/161 60/124/161
f 90/123/162 78/125/162 77/96/162
f 91/126/163 60/124/163 59/73/163
f 91/126/164 90/123/164 60/124/164
f 91/126/165 58/127/165 92/128/165
f 91/126/166 59/73/166 58/127/166
f 92/128/167 57/50/167 40/129/167
f 92/128/168 58/127/168 57/50/168
f 93/130/169 78/125/169 90/123/169
f 93/130/170 79/131/170 78/125/170
f 93/130/171 91/126/171 94/132/171
f 93/130/172 90/123/172 91/126/172
f 95/133/173 91/126/173 92/128/173
f 95/133/174 94/132/174 91/126/174
f 95/133/175 40/129/175 39/134/175
f 95/133/176 92/128/176 40/129/176
f 80/135/177 93/130/177 96/136/177
f 80/135/178 79/131/178 93/130/178
f 97/137/179 93/130/179 94/132/179
f 97/137/180 96/136/180 93/130/180
f 97/137/181 95/133/181 98/138/181
f 97/137/182 94/132/182 95/133/182
f 38/139/183 95/133/183 39/134/183
f 38/139/184 98/138/184 95/133/184
f 17/140/185 96/136/185 18/141/185
f 17/140/186 80/135/186 96/136/186
f 18/141/187 97/137/187 19/142/187
f 18/141/188 96/136/188 97/137/188
f 20/143/189 97/137/189 98/138/189
f 20/143/190 19/142/190 97/137/190
f 37/144/191 98/138/191 38/139/191
f 37/144/192 20/143/192 98/138/192
