# Blender 3.6.2
# www.blender.org
mtllib final_floor_rocks.mtl
o [Imported]_obj1_obj1
v -3.192000 0.005126 3.074000
v -2.257845 0.005126 3.623963
v -0.791104 0.005126 3.809293
v 0.791104 0.005126 3.809293
v 2.257845 0.005126 3.623963
v 3.192000 0.005126 3.074000
v 3.763075 0.005126 2.174378
v 3.955519 0.005126 0.761859
v 3.955519 0.005126 -0.761859
v 3.763075 0.005126 -2.174378
v 3.192000 0.005126 -3.074000
v 2.257845 0.005126 -3.623963
v 0.791104 0.005126 -3.809293
v -0.791104 0.005126 -3.809293
v -2.257845 0.005126 -3.623963
v -3.192000 0.005126 -3.074000
v -3.763075 0.005126 -2.174378
v -3.955519 0.005126 -0.761859
v -3.955519 0.005126 0.761859
v -3.763075 0.005126 2.174378
v -2.257845 0.429042 -2.174378
v -0.752615 0.662927 -2.174378
v 0.752615 0.662927 -2.174378
v 2.257845 0.429042 -2.174378
v -2.257845 0.662927 -0.724793
v -0.752615 0.429043 -0.724793
v 0.752615 0.704738 -0.724793
v 2.257845 0.662927 -0.724793
v -2.257845 0.662927 0.724793
v -0.752615 0.704739 0.724793
v 0.752615 0.429043 0.724793
v 2.257845 0.662927 0.724793
v -2.257845 0.429043 2.174378
v -0.752615 0.662927 2.174378
v 0.752615 0.662927 2.174378
v 2.257845 0.429043 2.174378
vn -0.1429 0.9194 -0.3665
vn -0.0354 0.9592 -0.2805
vn -0.0000 0.9277 -0.3733
vn 0.1475 0.9493 -0.2776
vn 0.0470 0.9271 -0.3719
vn 0.2672 0.9486 -0.1696
vn 0.1630 0.9470 -0.2769
vn -0.3544 0.9231 -0.1489
vn -0.2709 0.9619 -0.0369
vn 0.1516 0.9758 0.1574
vn -0.1516 0.9758 -0.1574
vn -0.1801 0.9832 -0.0284
vn -0.0000 0.9872 0.1593
vn 0.0274 0.9869 -0.1592
vn 0.1535 0.9877 -0.0285
vn 0.3599 0.9317 -0.0490
vn 0.2679 0.9512 -0.1535
vn -0.3613 0.9325 -0.0000
vn -0.0273 0.9820 -0.1868
vn 0.1535 0.9881 -0.0000
vn 0.1771 0.9669 0.1839
vn -0.1771 0.9669 -0.1839
vn -0.1535 0.9881 -0.0000
vn 0.0273 0.9820 0.1868
vn 0.3613 0.9325 -0.0000
vn -0.2679 0.9512 0.1535
vn -0.3599 0.9317 0.0490
vn -0.1535 0.9877 0.0285
vn -0.0274 0.9869 0.1592
vn -0.0000 0.9872 -0.1593
vn 0.1801 0.9832 0.0284
vn 0.2709 0.9619 0.0369
vn 0.3544 0.9231 0.1489
vn -0.1630 0.9470 0.2769
vn -0.2672 0.9486 0.1696
vn -0.0470 0.9271 0.3719
vn -0.1475 0.9493 0.2776
vn -0.0000 0.9277 0.3733
vn 0.0354 0.9592 0.2805
vn 0.1429 0.9194 0.3665
vn -0.2672 0.9486 -0.1696
vn -0.1630 0.9470 -0.2769
vn 0.1630 0.9470 0.2769
vn 0.2672 0.9486 0.1696
vt 0.400000 1.000000
vt 0.200000 0.800000
vt 0.400000 0.800000
vt 0.200000 1.000000
vt 0.600000 1.000000
vt 0.600000 0.800000
vt 0.800000 1.000000
vt 0.800000 0.800000
vt 1.000000 1.000000
vt 1.000000 0.800000
vt 0.000000 0.600000
vt 0.200000 0.600000
vt 0.000000 0.800000
vt 0.400000 0.600000
vt 0.600000 0.600000
vt 0.800000 0.600000
vt 1.000000 0.600000
vt 0.000000 0.400000
vt 0.200000 0.400000
vt 0.400000 0.400000
vt 0.600000 0.400000
vt 0.800000 0.400000
vt 1.000000 0.400000
vt 0.000000 0.200000
vt 0.200000 0.200000
vt 0.400000 0.200000
vt 0.600000 0.200000
vt 0.800000 0.200000
vt 1.000000 0.200000
vt 0.000000 0.000000
vt 0.200000 0.000000
vt 0.400000 0.000000
vt 0.600000 0.000000
vt 0.800000 0.000000
vt 0.000000 1.000000
vt 1.000000 0.000000
s 0
usemtl None
f 14/1/1 21/2/1 22/3/1
f 14/1/2 15/4/2 21/2/2
f 13/5/3 22/3/3 23/6/3
f 13/5/3 14/1/3 22/3/3
f 12/7/4 23/6/4 24/8/4
f 12/7/5 13/5/5 23/6/5
f 11/9/6 24/8/6 10/10/6
f 11/9/7 12/7/7 24/8/7
f 21/2/8 18/11/8 25/12/8
f 21/2/9 17/13/9 18/11/9
f 22/3/10 25/12/10 26/14/10
f 22/3/11 21/2/11 25/12/11
f 23/6/12 26/14/12 27/15/12
f 23/6/13 22/3/13 26/14/13
f 24/8/14 27/15/14 28/16/14
f 24/8/15 23/6/15 27/15/15
f 10/10/16 28/16/16 9/17/16
f 10/10/17 24/8/17 28/16/17
f 25/12/18 19/18/18 29/19/18
f 25/12/18 18/11/18 19/18/18
f 26/14/19 29/19/19 30/20/19
f 26/14/20 25/12/20 29/19/20
f 27/15/21 30/20/21 31/21/21
f 27/15/22 26/14/22 30/20/22
f 28/16/23 31/21/23 32/22/23
f 28/16/24 27/15/24 31/21/24
f 9/17/25 32/22/25 8/23/25
f 9/17/25 28/16/25 32/22/25
f 29/19/26 20/24/26 33/25/26
f 29/19/27 19/18/27 20/24/27
f 30/20/28 33/25/28 34/26/28
f 30/20/29 29/19/29 33/25/29
f 31/21/30 34/26/30 35/27/30
f 31/21/31 30/20/31 34/26/31
f 32/22/10 35/27/10 36/28/10
f 32/22/11 31/21/11 35/27/11
f 8/23/32 36/28/32 7/29/32
f 8/23/33 32/22/33 36/28/33
f 33/25/34 1/30/34 2/31/34
f 33/25/35 20/24/35 1/30/35
f 34/26/36 2/31/36 3/32/36
f 34/26/37 33/25/37 2/31/37
f 35/27/38 3/32/38 4/33/38
f 35/27/38 34/26/38 3/32/38
f 36/28/39 4/33/39 5/34/39
f 36/28/40 35/27/40 4/33/40
f 21/2/41 16/35/41 17/13/41
f 21/2/42 15/4/42 16/35/42
f 6/36/43 36/28/43 5/34/43
f 6/36/44 7/29/44 36/28/44
