# Blender v2.78 (sub 0) OBJ File: ''
# www.blender.org
mtllib school.mtl
o [Imported]_obj4_obj4
v 0.000000 9.590000 0.000000
v 17.305597 9.590000 0.000000
v 17.305597 0.000000 0.000000
v 17.305597 9.590001 -17.305597
v 17.305597 0.000001 -17.305597
v 0.000000 9.590001 -17.305597
v 0.000000 0.000001 -17.305597
v 1.202485 9.595508 -1.202484
v 16.103115 9.595508 -1.202484
v 16.103115 9.595509 -16.103115
v 1.202485 9.595509 -16.103115
v 1.202485 0.011189 -1.202485
v 16.103115 0.011189 -1.202485
v 16.103115 0.011190 -16.103115
v 1.202485 0.011190 -16.103115
v 0.000000 9.589999 17.305597
v 0.000000 -0.000001 17.305597
v 17.305597 9.589999 17.305597
v 17.305597 -0.000001 17.305597
v 17.305597 9.590000 0.000000
v 17.305597 0.000000 0.000000
v 0.000000 9.590000 0.000000
v 0.000000 9.595507 16.103115
v 16.103115 9.595507 16.103115
v 16.103115 9.595508 1.202485
v 0.000000 9.595508 1.202485
v 0.000000 0.011188 16.103115
v 16.103115 0.011188 16.103115
v 16.103115 0.011189 1.202485
v 0.000000 0.011189 1.202485
v -17.305597 9.589999 17.305597
v -17.305597 -0.000001 17.305597
v 0.000000 9.589999 17.305597
v 0.000000 -0.000001 17.305597
v 0.000000 9.590000 0.000000
v -17.305597 9.590000 0.000000
v -17.305597 0.000000 0.000000
v -16.103115 9.595507 16.103115
v -16.103115 9.595508 1.202485
v -16.103115 0.011188 16.103115
v -16.103115 0.011189 1.202485
v -17.305597 9.590000 0.000000
v -17.305597 0.000000 0.000000
v 0.000000 9.590000 0.000000
v 0.000000 9.590001 -17.305597
v 0.000000 0.000001 -17.305597
v -17.305597 9.590001 -17.305597
v -17.305597 0.000001 -17.305597
v -16.103115 9.595508 -1.202484
v -1.202485 9.595508 -1.202484
v -1.202485 9.595509 -16.103115
v -16.103115 9.595509 -16.103115
v -16.103115 0.011189 -1.202485
v -1.202485 0.011189 -1.202485
v -1.202485 0.011190 -16.103115
v -16.103115 0.011190 -16.103115
vt 0.0000 1.0000
vt 0.0000 0.0000
vt 1.0000 0.0000
vt 1.0000 1.0000
vt 0.0000 1.0000
vt 0.0000 0.0000
vt 1.0000 0.0000
vt 1.0000 1.0000
vt 1.0000 1.0000
vt 0.0000 1.0000
vt 0.0000 1.0000
vt 1.0000 0.0000
vt 1.0000 0.0000
vt 0.0000 0.0000
vt 0.0000 0.0000
vt 1.0000 1.0000
vt 0.0000 1.0000
vt 1.0000 0.0000
vt 0.0000 0.0000
vt 0.0000 1.0000
vt 0.0000 0.0000
vt 1.0000 0.0000
vt 1.0000 1.0000
vt 0.0000 1.0000
vt 0.0000 0.0000
vt 1.0000 0.0000
vt 1.0000 1.0000
vt 1.0000 1.0000
vt 0.0000 1.0000
vt 0.0000 1.0000
vt 1.0000 0.0000
vt 1.0000 0.0000
vt 0.0000 0.0000
vt 0.0000 0.0000
vt 1.0000 1.0000
vt 0.0000 1.0000
vt 1.0000 0.0000
vt 0.0000 0.0000
vt 0.0000 1.0000
vt 0.0000 0.0000
vt 1.0000 0.0000
vt 1.0000 1.0000
vt 0.0000 1.0000
vt 0.0000 0.0000
vt 1.0000 0.0000
vt 1.0000 1.0000
vt 1.0000 1.0000
vt 1.0000 1.0000
vt 0.0000 1.0000
vt 0.0000 0.0000
vt 0.0000 0.0000
vt 1.0000 0.0000
vt 1.0000 0.0000
vt 1.0000 1.0000
vt 0.0000 1.0000
vt 0.0000 0.0000
vt 1.0000 0.0000
vt 0.0000 1.0000
vt 0.0000 0.0000
vt 1.0000 0.0000
vt 1.0000 1.0000
vt 0.0000 1.0000
vt 0.0000 0.0000
vt 1.0000 0.0000
vt 1.0000 1.0000
vt 1.0000 1.0000
vt 1.0000 1.0000
vt 0.0000 1.0000
vt 1.0000 0.0000
vt 1.0000 0.0000
vt 0.0000 0.0000
vt 0.0000 0.0000
vt 1.0000 1.0000
vt 0.0000 1.0000
vt 1.0000 0.0000
vt 0.0000 0.0000
vn 1.0000 0.0000 0.0000
vn 0.0000 0.0000 -1.0000
vn 0.0000 1.0000 -0.0046
vn 0.0046 1.0000 0.0000
vn 0.0000 1.0000 0.0046
vn -0.0046 1.0000 0.0000
vn 0.0000 0.0000 1.0000
vn -1.0000 0.0000 0.0000
usemtl None
s off
f 2/1/1 3/2/1 5/3/1 4/4/1
f 4/5/2 5/6/2 7/7/2 6/8/2
f 10/9/3 4/4/3 6/10/3 11/11/3
f 9/12/4 2/13/4 4/4/4 10/9/4
f 8/14/5 1/15/5 2/13/5 9/12/5
f 11/11/6 6/10/6 1/15/6 8/14/6
f 14/16/7 10/9/7 11/11/7 15/17/7
f 13/18/8 9/12/8 10/9/8 14/16/8
f 12/19/2 8/14/2 9/12/2 13/18/2
f 15/17/1 11/11/1 8/14/1 12/19/1
f 16/20/7 17/21/7 19/22/7 18/23/7
f 18/24/1 19/25/1 21/26/1 20/27/1
f 25/28/3 20/27/3 22/29/3 26/30/3
f 24/31/4 18/32/4 20/27/4 25/28/4
f 23/33/5 16/34/5 18/32/5 24/31/5
f 29/35/7 25/28/7 26/30/7 30/36/7
f 28/37/8 24/31/8 25/28/8 29/35/8
f 27/38/2 23/33/2 24/31/2 28/37/2
f 31/39/7 32/40/7 34/41/7 33/42/7
f 36/43/8 37/44/8 32/45/8 31/46/8
f 26/47/3 35/48/3 36/43/3 39/49/3
f 38/50/5 31/51/5 33/52/5 23/53/5
f 39/49/6 36/43/6 31/51/6 38/50/6
f 30/54/7 26/47/7 39/49/7 41/55/7
f 40/56/2 38/50/2 23/53/2 27/57/2
f 41/55/1 39/49/1 38/50/1 40/56/1
f 45/58/2 46/59/2 48/60/2 47/61/2
f 47/62/8 48/63/8 43/64/8 42/65/8
f 51/66/3 45/67/3 47/62/3 52/68/3
f 50/69/4 44/70/4 45/67/4 51/66/4
f 49/71/5 42/72/5 44/70/5 50/69/5
f 52/68/6 47/62/6 42/72/6 49/71/6
f 55/73/7 51/66/7 52/68/7 56/74/7
f 54/75/8 50/69/8 51/66/8 55/73/8
f 53/76/2 49/71/2 50/69/2 54/75/2
f 56/74/1 52/68/1 49/71/1 53/76/1
